<?xml version="1.0" encoding="UTF-8"?><svg id="Layer_1" xmlns="http://www.w3.org/2000/svg" viewBox="0 0 533.08 623.43"><defs><style>.cls-1{fill:#23889f;}.cls-2{fill:#425455;}</style></defs><polygon class="cls-1" points="123.19 383.11 68.89 345.94 68.89 464.71 123.19 423.64 123.19 383.11"/><polygon class="cls-1" points="68.89 16.02 14.58 57.09 259.17 240.86 313.45 199.76 68.89 16.02"/><polygon class="cls-1" points="482.08 268.25 518.5 240.68 456.95 100.76 402.67 141.85 464.59 281.72 427.59 254.72 427.79 411.49 313.47 500.62 313.47 199.8 259.17 240.86 259.17 607.42 313.47 566.35 428.71 476.5 482.08 436.14 482.08 268.25"/><polygon class="cls-2" points="221.64 212.48 221.64 212.36 207.27 201.62 204.87 199.8 204.87 199.82 68.89 98.15 30.56 69.17 14.58 57.09 14.58 423.64 68.89 464.71 68.89 345.94 137.39 396.44 137.41 396.47 191.71 355.41 191.71 295.28 137.41 336.35 68.89 285.94 68.89 158.94 204.87 260 204.87 566.35 259.17 607.42 259.17 240.86 221.64 212.48"/><polygon class="cls-2" points="464.22 281.77 402.67 141.85 456.95 100.76 388.43 144.25 334.15 185.34 373.48 214.5 373.48 386.99 313.47 433.03 313.47 500.62 427.79 411.49 427.79 411.28 427.79 254.76 464.22 281.77"/><polygon class="cls-1" points="123.55 245.19 123.55 199.58 69.25 159.23 69.25 285.67 137.77 336.08 191.71 295.28 123.62 245.14 123.55 245.19"/></svg>